<svg id="hand-index-thumb" xmlns="http://www.w3.org/2000/svg" width="29.971" height="32" viewBox="0 0 29.971 32">
  <path id="hand-index-thumb-2" data-name="hand-index-thumb" d="M12.644,2a1.5,1.5,0,0,1,1.5,1.5V16a1,1,0,1,0,2,0V10.934l.172-.008a8.507,8.507,0,0,1,1.632.054,3.312,3.312,0,0,1,.9.364.684.684,0,0,1,.3.628V16a1,1,0,0,0,2,0V12.87l.212-.02a3.836,3.836,0,0,1,1.416.08,3.122,3.122,0,0,1,.972.86c.162.192.3.38.4.518V17a1,1,0,0,0,2,0V15h.684a2,2,0,0,1,1.99,2.2l-.542,5.43a5,5,0,0,1-.634,1.982L24.852,29.5a1,1,0,0,1-.868.5H11.38a1,1,0,0,1-.894-.552l-2.464-4.93L3,16.148a1.034,1.034,0,0,1,1.618-1.262l4.82,4.82A1,1,0,0,0,11.144,19V3.5a1.5,1.5,0,0,1,1.5-1.5Zm3.5,6.932V3.5a3.5,3.5,0,1,0-7,0V16.586L6.03,13.472a3.034,3.034,0,0,0-4.746,3.7l4.982,8.306,2.43,4.86A3,3,0,0,0,11.38,32h12.6a3,3,0,0,0,2.6-1.512l2.79-4.882a7,7,0,0,0,.888-2.778l.542-5.43a4,4,0,0,0-3.98-4.4H25.666q-.187-.254-.39-.5a4.931,4.931,0,0,0-1.76-1.432,5.535,5.535,0,0,0-2.316-.216l-.264.024A2.52,2.52,0,0,0,19.816,9.6,5.264,5.264,0,0,0,18.34,9.02a9.983,9.983,0,0,0-2.1-.092ZM20.332,12.982Z" transform="translate(-0.856)"/>
</svg>
