<svg id="icono-formacion" xmlns="http://www.w3.org/2000/svg" xmlns:xlink="http://www.w3.org/1999/xlink" width="75.277" height="78" viewBox="0 0 75.277 78">
  <defs>
    <clipPath id="clip-path">
      <rect id="Rectángulo_994" data-name="Rectángulo 994" width="75.277" height="78" fill="#00aca9"/>
    </clipPath>
  </defs>
  <g id="Grupo_1937" data-name="Grupo 1937" clip-path="url(#clip-path)">
    <path id="Trazado_2768" data-name="Trazado 2768" d="M68.73,61.023a.924.924,0,0,1-.924-.924V47.205a6.451,6.451,0,0,0-6.444-6.444H55.213L51.443,45.1a.924.924,0,0,1-.7.318H43.157a.923.923,0,0,1-.7-.318l-3.77-4.336H33.154A7.066,7.066,0,0,0,26.1,47.819V60.1a.924.924,0,1,1-1.848,0V47.819a8.916,8.916,0,0,1,8.906-8.905H39.11a.924.924,0,0,1,.7.317l3.77,4.337h6.747l3.77-4.337a.925.925,0,0,1,.7-.317h6.57a8.3,8.3,0,0,1,8.292,8.291V60.1a.924.924,0,0,1-.924.924" transform="translate(-9.315 -14.948)" fill="#00aca9"/>
    <path id="Trazado_2769" data-name="Trazado 2769" d="M60.372,54.168h-4.4a.924.924,0,0,1-.892-.681l-1.6-5.85a.924.924,0,1,1,1.783-.486l1.409,5.169h2.993l1.409-5.169a.924.924,0,1,1,1.782.486l-1.6,5.85a.923.923,0,0,1-.891.681" transform="translate(-20.532 -17.851)" fill="#00aca9"/>
    <path id="Trazado_2770" data-name="Trazado 2770" d="M54.375,67.575a.893.893,0,0,1-.15-.012.923.923,0,0,1-.762-1.061l1.594-9.758a.924.924,0,0,1,1.824.3L55.286,66.8a.924.924,0,0,1-.911.775" transform="translate(-20.532 -21.5)" fill="#00aca9"/>
    <path id="Trazado_2771" data-name="Trazado 2771" d="M65.708,67.575A.924.924,0,0,1,64.8,66.8L63.2,57.042a.924.924,0,0,1,1.824-.3L66.62,66.5a.923.923,0,0,1-.762,1.061.9.9,0,0,1-.15.012" transform="translate(-24.274 -21.5)" fill="#00aca9"/>
    <path id="Trazado_2772" data-name="Trazado 2772" d="M54.865,22.54c-5.521,0-10.013-5.056-10.013-11.27S49.344,0,54.865,0,64.879,5.056,64.879,11.27,60.386,22.54,54.865,22.54m0-20.692c-4.5,0-8.166,4.227-8.166,9.423s3.663,9.422,8.166,9.422,8.166-4.227,8.166-9.422-3.663-9.423-8.166-9.423" transform="translate(-17.229 0)" fill="#00aca9"/>
    <path id="Trazado_2773" data-name="Trazado 2773" d="M74.353,82.461H.924a.924.924,0,1,1,0-1.848H74.353a.924.924,0,1,1,0,1.848" transform="translate(0 -30.967)" fill="#00aca9"/>
    <path id="Trazado_2774" data-name="Trazado 2774" d="M13.772,108.967a.924.924,0,0,1-.924-.924V81.537a.924.924,0,0,1,1.848,0v26.506a.924.924,0,0,1-.924.924" transform="translate(-4.935 -30.967)" fill="#00aca9"/>
    <path id="Trazado_2775" data-name="Trazado 2775" d="M107.307,108.967a.924.924,0,0,1-.924-.924V81.537a.924.924,0,0,1,1.848,0v26.506a.924.924,0,0,1-.924.924" transform="translate(-40.866 -30.967)" fill="#00aca9"/>
    <path id="Trazado_2776" data-name="Trazado 2776" d="M63.591,103.616H40.153a3.1,3.1,0,0,1-3.1-3.1V96.975a3.1,3.1,0,0,1,3.1-3.1H63.591a3.1,3.1,0,0,1,3.1,3.1v3.541a3.1,3.1,0,0,1-3.1,3.1M40.153,95.722A1.255,1.255,0,0,0,38.9,96.975v3.541a1.255,1.255,0,0,0,1.253,1.253H63.591a1.255,1.255,0,0,0,1.253-1.253V96.975a1.255,1.255,0,0,0-1.253-1.253Z" transform="translate(-14.233 -36.061)" fill="#00aca9"/>
  </g>
</svg>
