<svg id="icono-soporte-tecnico" xmlns="http://www.w3.org/2000/svg" xmlns:xlink="http://www.w3.org/1999/xlink" width="99.013" height="78" viewBox="0 0 99.013 78">
  <defs>
    <clipPath id="clip-path">
      <rect id="Rectángulo_993" data-name="Rectángulo 993" width="99.013" height="78" fill="#00aca9"/>
    </clipPath>
  </defs>
  <g id="Grupo_1931" data-name="Grupo 1931" clip-path="url(#clip-path)">
    <path id="Trazado_2763" data-name="Trazado 2763" d="M43,76.5a.969.969,0,0,1-.168-.015.948.948,0,0,1-.77-1.1c1-5.681,3.527-9.58,7.957-12.269a17.424,17.424,0,0,1,6.326-2.437l.022-.488a8.413,8.413,0,1,1,4.208,0l.024.487a17.445,17.445,0,0,1,6.356,2.444c4.428,2.688,6.956,6.587,7.954,12.268a.945.945,0,0,1-.768,1.1.894.894,0,0,1-.165.015.945.945,0,0,1-.931-.783c-1.165-6.632-4.393-9.351-7.073-10.979a14.224,14.224,0,0,0-7.486-2.33A14.224,14.224,0,0,0,51,64.741c-2.682,1.629-5.91,4.349-7.075,10.98A.943.943,0,0,1,43,76.5m15.462-30.95a6.514,6.514,0,1,0,6.513,6.5,6.511,6.511,0,0,0-6.513-6.5" transform="translate(-15.856 -16.464)" fill="#00aca9"/>
    <path id="Trazado_2764" data-name="Trazado 2764" d="M141.729,32.9a4.8,4.8,0,1,1,4.8-4.8,4.8,4.8,0,0,1-4.8,4.8m0-7.7a2.9,2.9,0,1,0,2.9,2.9,2.906,2.906,0,0,0-2.9-2.9" transform="translate(-51.634 -8.788)" fill="#00aca9"/>
    <path id="Trazado_2765" data-name="Trazado 2765" d="M108.266,32.9a4.8,4.8,0,1,1,4.8-4.8,4.8,4.8,0,0,1-4.8,4.8m0-7.7a2.9,2.9,0,1,0,2.9,2.9,2.906,2.906,0,0,0-2.9-2.9" transform="translate(-39.016 -8.788)" fill="#00aca9"/>
    <path id="Trazado_2766" data-name="Trazado 2766" d="M125,32.9a4.8,4.8,0,1,1,4.8-4.8,4.8,4.8,0,0,1-4.8,4.8m0-7.7a2.9,2.9,0,1,0,2.9,2.9,2.906,2.906,0,0,0-2.9-2.9" transform="translate(-45.325 -8.788)" fill="#00aca9"/>
    <path id="Trazado_2767" data-name="Trazado 2767" d="M4.486,78A4.491,4.491,0,0,1,0,73.514v-.072a4.491,4.491,0,0,1,4.486-4.486H6.854V24.575a9.118,9.118,0,0,1,9.11-9.105H60.752l.042-.2a19.324,19.324,0,0,1,38.219,4.042A19.434,19.434,0,0,1,80.1,38.636l-.244,0V68.957h.928a4.491,4.491,0,0,1,4.486,4.486v.072A4.491,4.491,0,0,1,80.78,78Zm0-7.126a2.572,2.572,0,0,0-2.569,2.569v.072a2.571,2.571,0,0,0,2.569,2.568H80.78a2.571,2.571,0,0,0,2.569-2.568v-.072a2.572,2.572,0,0,0-2.569-2.569ZM15.964,17.386a7.2,7.2,0,0,0-7.189,7.189V68.957H77.935v-30.4l-.223-.024a19.369,19.369,0,0,1-6.336-1.794l-.089-.042-9.8,3.094a.9.9,0,0,1-.273.043.891.891,0,0,1-.691-.339.868.868,0,0,1-.168-.751l2.355-10.227-.044-.082a19.49,19.49,0,0,1-1.876-5.146l-.042-.2H13.463a.958.958,0,1,1,0-1.917h47l-.022-.27c-.051-.612-.075-1.119-.075-1.6,0-.52.024-1.062.075-1.657l.023-.271ZM62.6,37.46l8.831-2.789.762.364a17.524,17.524,0,0,0,5.53,1.6c.159.019.318.032.477.044l.228.02c.089.008.178.017.268.022q.491.028.984.029h.088A17.429,17.429,0,1,0,62.7,15.439q-.079.344-.144.693l-.07.389c-.055.338-.1.677-.136,1.019a17.533,17.533,0,0,0-.09,1.775,17.039,17.039,0,0,0,.107,1.847c.024.222.055.444.087.665s.056.386.087.555c.027.15.059.3.092.447l.021.1a17.586,17.586,0,0,0,1.687,4.621l.379.709Z" fill="#00aca9"/>
  </g>
</svg>
