<svg id="icono-futuro" xmlns="http://www.w3.org/2000/svg" xmlns:xlink="http://www.w3.org/1999/xlink" width="71.279" height="78" viewBox="0 0 71.279 78">
  <defs>
    <clipPath id="clip-path">
      <rect id="Rectángulo_995" data-name="Rectángulo 995" width="71.279" height="78" fill="#00aca9"/>
    </clipPath>
  </defs>
  <g id="Grupo_1939" data-name="Grupo 1939" clip-path="url(#clip-path)">
    <path id="Trazado_2777" data-name="Trazado 2777" d="M134.042,96.461a.846.846,0,0,1-.846-.826,16,16,0,0,0-10.746-14.69.846.846,0,0,1,.247-1.654h.006a.842.842,0,0,1,.275.046,17.7,17.7,0,0,1,11.911,16.259.847.847,0,0,1-.827.866Z" transform="translate(-81.413 -52.975)" fill="#00aca9"/>
    <path id="Trazado_2778" data-name="Trazado 2778" d="M159.854,79.478a.846.846,0,0,1-.846-.844,26.8,26.8,0,0,0-14.345-23.69.846.846,0,0,1,.789-1.5A28.487,28.487,0,0,1,160.7,78.63a.846.846,0,0,1-.844.849Z" transform="translate(-96.35 -35.644)" fill="#00aca9"/>
    <path id="Trazado_2779" data-name="Trazado 2779" d="M52.581,50.976a3.7,3.7,0,0,1-2.422-.9l-8.145-7.019a3.714,3.714,0,0,1-.388-5.239l23.7-27.5a3.72,3.72,0,0,1,5.238-.389l8.145,7.019a3.715,3.715,0,0,1,.389,5.239l-23.7,27.5a3.708,3.708,0,0,1-2.817,1.287M68.144,10.721a2.018,2.018,0,0,0-1.533.7l-23.7,27.5a2.02,2.02,0,0,0,.212,2.851L51.264,48.8a2.024,2.024,0,0,0,2.851-.212l23.7-27.5h0a2.022,2.022,0,0,0-.212-2.851L69.462,11.21a2.013,2.013,0,0,0-1.319-.489" transform="translate(-27.209 -6.033)" fill="#00aca9"/>
    <path id="Trazado_2780" data-name="Trazado 2780" d="M41,132.955a.842.842,0,0,1-.552-.205l-4.663-4.018a.847.847,0,0,1,1.105-1.283l4.662,4.018A.846.846,0,0,1,41,132.955" transform="translate(-23.715 -85.015)" fill="#00aca9"/>
    <path id="Trazado_2781" data-name="Trazado 2781" d="M150.661,5.711a.842.842,0,0,1-.552-.205l-4.663-4.018A.847.847,0,1,1,146.552.205l4.663,4.018a.846.846,0,0,1-.553,1.488" transform="translate(-96.979 -0.001)" fill="#00aca9"/>
    <path id="Trazado_2782" data-name="Trazado 2782" d="M105.637,56.068a.846.846,0,0,1-.641-1.4l6.762-7.846a.847.847,0,1,1,1.283,1.105l-6.762,7.846a.845.845,0,0,1-.642.294" transform="translate(-70.013 -31.087)" fill="#00aca9"/>
    <path id="Trazado_2783" data-name="Trazado 2783" d="M65.849,174.264H5.43A5.436,5.436,0,0,1,0,168.834v-4.68a5.436,5.436,0,0,1,5.43-5.43H35.937a3.762,3.762,0,0,0,2.965-1.462l8.484-11.056a5.467,5.467,0,0,1,4.308-2.124h9.131a5.452,5.452,0,0,1,4.914,3.12l4.653,9.9a9.394,9.394,0,0,1,.886,3.97v7.766a5.436,5.436,0,0,1-5.43,5.43M5.43,160.417a3.742,3.742,0,0,0-3.737,3.737v4.68a3.742,3.742,0,0,0,3.737,3.737H65.849a3.742,3.742,0,0,0,3.737-3.737v-7.766a7.7,7.7,0,0,0-.725-3.25l-4.653-9.9a3.753,3.753,0,0,0-3.382-2.147H51.695a3.761,3.761,0,0,0-2.965,1.462l-8.484,11.055a5.463,5.463,0,0,1-4.308,2.125Z" transform="translate(0 -96.264)" fill="#00aca9"/>
    <path id="Trazado_2784" data-name="Trazado 2784" d="M155.846,202.553H141.687a.846.846,0,0,1-.846-.846v-5.623a.846.846,0,0,1,.846-.846h14.158a.846.846,0,0,1,.846.846v5.623a.846.846,0,0,1-.846.846m-13.312-1.693H155v-3.931H142.534Z" transform="translate(-94.099 -130.442)" fill="#00aca9"/>
  </g>
</svg>
