<svg id="icono-pequeno-usuario" xmlns="http://www.w3.org/2000/svg" xmlns:xlink="http://www.w3.org/1999/xlink" width="80.068" height="78" viewBox="0 0 80.068 78">
  <defs>
    <clipPath id="clip-path">
      <rect id="Rectángulo_996" data-name="Rectángulo 996" width="80.068" height="78" fill="#00aca9"/>
    </clipPath>
  </defs>
  <g id="Grupo_1941" data-name="Grupo 1941" clip-path="url(#clip-path)">
    <path id="Trazado_2785" data-name="Trazado 2785" d="M19.844,63.1A7.608,7.608,0,1,1,27.452,55.5,7.617,7.617,0,0,1,19.844,63.1m0-13.424A5.816,5.816,0,1,0,25.66,55.5a5.822,5.822,0,0,0-5.816-5.816" transform="translate(-4.927 -19.28)" fill="#00aca9"/>
    <path id="Trazado_2786" data-name="Trazado 2786" d="M22.425,101.847a.9.9,0,0,1-.9-.9V79.034a.9.9,0,0,1,.329-.694l8.126-6.651,8.33-6.766a2.2,2.2,0,0,0,.808-1.708,2.222,2.222,0,0,0-.493-1.388,2.2,2.2,0,0,0-3.084-.314L21.309,73.078a.892.892,0,0,1-.565.2H7.594a5.8,5.8,0,0,0-5.8,5.792V92.85c0,.02,0,.04,0,.06a2.186,2.186,0,0,0,4.372-.062V84.281a.9.9,0,1,1,1.792,0V100.95a.9.9,0,0,1-1.792,0V96.169A3.978,3.978,0,0,1,0,92.849c0-.024,0-.049,0-.073V79.071a7.6,7.6,0,0,1,7.591-7.584H20.426L34.415,60.122a3.995,3.995,0,0,1,5.608.579,4,4,0,0,1-.578,5.612l-8.328,6.765-7.8,6.38V100.95a.9.9,0,0,1-.9.9" transform="translate(0 -23.847)" fill="#00aca9"/>
    <path id="Trazado_2787" data-name="Trazado 2787" d="M103.93,63.1a7.608,7.608,0,1,1,7.608-7.608A7.617,7.617,0,0,1,103.93,63.1m0-13.424a5.816,5.816,0,1,0,5.816,5.816,5.822,5.822,0,0,0-5.816-5.816" transform="translate(-38.779 -19.28)" fill="#00aca9"/>
    <path id="Trazado_2788" data-name="Trazado 2788" d="M121.6,123.9a.9.9,0,0,1-.9-.9v-8.1a.9.9,0,0,1,1.792,0V123a.9.9,0,0,1-.9.9" transform="translate(-48.595 -45.895)" fill="#00aca9"/>
    <path id="Trazado_2789" data-name="Trazado 2789" d="M107.2,98.369a3.984,3.984,0,0,1-3.979-3.98V85.824a.9.9,0,1,1,1.792,0v8.565a2.187,2.187,0,1,0,4.375,0V80.611a5.8,5.8,0,0,0-5.8-5.787H90.438a.9.9,0,0,1-.565-.2L77.609,64.658a.9.9,0,0,1,1.13-1.391l12.017,9.765h12.83a7.6,7.6,0,0,1,7.594,7.579V94.389a3.984,3.984,0,0,1-3.98,3.98" transform="translate(-31.112 -25.39)" fill="#00aca9"/>
    <path id="Trazado_2790" data-name="Trazado 2790" d="M87.573,107.8a.9.9,0,0,1-.9-.9V85.41l-12-9.8a.9.9,0,0,1,1.131-1.39l4.208,3.423,8.128,6.65a.9.9,0,0,1,.329.694V106.9a.9.9,0,0,1-.9.9" transform="translate(-29.93 -29.799)" fill="#00aca9"/>
    <path id="Trazado_2791" data-name="Trazado 2791" d="M66.383,13.2a.9.9,0,0,1-.9-.9V.9a.9.9,0,0,1,1.792,0V12.3a.9.9,0,0,1-.9.9" transform="translate(-26.365)" fill="#00aca9"/>
    <path id="Trazado_2792" data-name="Trazado 2792" d="M41.739,22.1a.892.892,0,0,1-.587-.22L32.543,14.4a.9.9,0,0,1,1.176-1.353l8.607,7.482a.9.9,0,0,1-.588,1.572" transform="translate(-12.978 -5.165)" fill="#00aca9"/>
    <path id="Trazado_2793" data-name="Trazado 2793" d="M85.228,22.1a.9.9,0,0,1-.588-1.572l8.607-7.482A.9.9,0,0,1,94.422,14.4l-8.607,7.482a.892.892,0,0,1-.587.22" transform="translate(-33.951 -5.165)" fill="#00aca9"/>
  </g>
</svg>
