<svg id="icono-produccion-nacional-certificada-sensibilidad-ambiental" xmlns="http://www.w3.org/2000/svg" xmlns:xlink="http://www.w3.org/1999/xlink" width="84.959" height="78" viewBox="0 0 84.959 78">
  <defs>
    <clipPath id="clip-path">
      <rect id="Rectángulo_997" data-name="Rectángulo 997" width="84.959" height="78" fill="#00aca9"/>
    </clipPath>
  </defs>
  <g id="Grupo_1943" data-name="Grupo 1943" clip-path="url(#clip-path)">
    <path id="Trazado_2794" data-name="Trazado 2794" d="M65.495,88.235H1a1,1,0,0,1-1-1.084l5.73-69.375a1,1,0,0,1,1-.919H40.264a1,1,0,1,1,0,2H7.655L2.09,86.231H64.407l-3.3-39.96c0-.028,0-.055,0-.082a1,1,0,0,1,2-.055L66.493,87.15a1,1,0,0,1-1,1.085" transform="translate(0 -10.235)" fill="#00aca9"/>
    <path id="Trazado_2795" data-name="Trazado 2795" d="M98.806,70.509a1,1,0,0,1-1-.922c-.795-9.874,14.715-33.786,26.607-37.87a1,1,0,1,1,.651,1.895c-4.812,1.653-11.285,7.719-16.893,15.831-5.428,7.852-8.714,15.7-8.368,19.983a1,1,0,0,1-.919,1.079c-.027,0-.054,0-.081,0" transform="translate(-59.367 -19.225)" fill="#00aca9"/>
    <path id="Trazado_2796" data-name="Trazado 2796" d="M98.8,40.922a1,1,0,0,1-.64-1.773c5.08-4.216,11.764-7.587,18.227-10.848,10.665-5.38,20.739-10.461,22.535-18.518.726-3.256-.372-5.447-3.357-6.7-6.612-2.768-18.887.37-19.788,1.764a.974.974,0,0,1-.563.522.992.992,0,0,1-.773-.047c-1.811-.865-4.017-.376-6.56,1.457-7.259,5.23-14.205,19.193-13.273,26.68a1,1,0,1,1-1.988.248C91.593,25.5,98.835,10.827,106.7,5.157c2.842-2.047,5.549-2.706,7.88-1.928C117.608.636,129.163-1.167,135.414.9c4.527,1.5,6.465,4.806,5.459,9.323-2,8.984-12.487,14.272-23.588,19.872-6.364,3.21-12.945,6.53-17.85,10.6a1,1,0,0,1-.639.231" transform="translate(-56.173 0)" fill="#00aca9"/>
    <path id="Trazado_2797" data-name="Trazado 2797" d="M69.687,42.593H58.768a1,1,0,1,1,0-2H69.687a1,1,0,0,1,0,2" transform="translate(-35.073 -24.645)" fill="#00aca9"/>
    <path id="Trazado_2798" data-name="Trazado 2798" d="M48.871,71.068H30.445a1,1,0,0,1,0-2H48.871a1,1,0,0,1,0,2" transform="translate(-17.877 -41.933)" fill="#00aca9"/>
    <path id="Trazado_2799" data-name="Trazado 2799" d="M52.879,99.968H30.446a1,1,0,1,1,0-2H52.879a1,1,0,0,1,0,2" transform="translate(-17.877 -59.48)" fill="#00aca9"/>
    <path id="Trazado_2800" data-name="Trazado 2800" d="M50.66,128.867H30.446a1,1,0,1,1,0-2H50.66a1,1,0,1,1,0,2" transform="translate(-17.877 -77.026)" fill="#00aca9"/>
  </g>
</svg>
