<svg xmlns="http://www.w3.org/2000/svg" xmlns:xlink="http://www.w3.org/1999/xlink" width="119" height="194" viewBox="0 0 119 194">
  <defs>
    <clipPath id="clip-path">
      <rect width="115" height="190" fill="none"/>
    </clipPath>
  </defs>
  <g id="placa-solar--disable" transform="translate(11545 -9221)">
    <g id="Rectángulo_514" data-name="Rectángulo 514" transform="translate(-11545 9221)" fill="#fff" stroke="#707070" stroke-width="2">
      <rect width="119" height="194" stroke="none"/>
      <rect x="1" y="1" width="117" height="192" fill="none"/>
    </g>
    <g id="Cuadrícula_de_repetición_24" data-name="Cuadrícula de repetición 24" transform="translate(-11543 9223)" clip-path="url(#clip-path)">
      <g transform="translate(-1217 -5713)">
        <g id="Rectángulo_851" data-name="Rectángulo 851" transform="translate(1217 5713)" fill="#d1d1d1" stroke="#fff" stroke-width="1">
          <rect width="20" height="28" rx="5" stroke="none"/>
          <rect x="0.5" y="0.5" width="19" height="27" rx="4.5" fill="none"/>
        </g>
        <g id="Grupo_1614" data-name="Grupo 1614" transform="translate(1.5)">
          <path id="Trazado_2721" data-name="Trazado 2721" d="M0,0V26" transform="translate(1219.5 5714)" fill="none" stroke="#fff" stroke-width="1"/>
          <path id="Trazado_2722" data-name="Trazado 2722" d="M0,0V26" transform="translate(1223.5 5714)" fill="none" stroke="#fff" stroke-width="1"/>
          <path id="Trazado_2723" data-name="Trazado 2723" d="M0,0V26" transform="translate(1227.5 5714)" fill="none" stroke="#fff" stroke-width="1"/>
          <path id="Trazado_2724" data-name="Trazado 2724" d="M0,0V26" transform="translate(1231.5 5714)" fill="none" stroke="#fff" stroke-width="1"/>
        </g>
      </g>
      <g transform="translate(-1198 -5713)">
        <g id="Rectángulo_851-2" data-name="Rectángulo 851" transform="translate(1217 5713)" fill="#d1d1d1" stroke="#fff" stroke-width="1">
          <rect width="20" height="28" rx="5" stroke="none"/>
          <rect x="0.5" y="0.5" width="19" height="27" rx="4.5" fill="none"/>
        </g>
        <g id="Grupo_1614-2" data-name="Grupo 1614" transform="translate(1.5)">
          <path id="Trazado_2721-2" data-name="Trazado 2721" d="M0,0V26" transform="translate(1219.5 5714)" fill="none" stroke="#fff" stroke-width="1"/>
          <path id="Trazado_2722-2" data-name="Trazado 2722" d="M0,0V26" transform="translate(1223.5 5714)" fill="none" stroke="#fff" stroke-width="1"/>
          <path id="Trazado_2723-2" data-name="Trazado 2723" d="M0,0V26" transform="translate(1227.5 5714)" fill="none" stroke="#fff" stroke-width="1"/>
          <path id="Trazado_2724-2" data-name="Trazado 2724" d="M0,0V26" transform="translate(1231.5 5714)" fill="none" stroke="#fff" stroke-width="1"/>
        </g>
      </g>
      <g transform="translate(-1179 -5713)">
        <g id="Rectángulo_851-3" data-name="Rectángulo 851" transform="translate(1217 5713)" fill="#d1d1d1" stroke="#fff" stroke-width="1">
          <rect width="20" height="28" rx="5" stroke="none"/>
          <rect x="0.5" y="0.5" width="19" height="27" rx="4.5" fill="none"/>
        </g>
        <g id="Grupo_1614-3" data-name="Grupo 1614" transform="translate(1.5)">
          <path id="Trazado_2721-3" data-name="Trazado 2721" d="M0,0V26" transform="translate(1219.5 5714)" fill="none" stroke="#fff" stroke-width="1"/>
          <path id="Trazado_2722-3" data-name="Trazado 2722" d="M0,0V26" transform="translate(1223.5 5714)" fill="none" stroke="#fff" stroke-width="1"/>
          <path id="Trazado_2723-3" data-name="Trazado 2723" d="M0,0V26" transform="translate(1227.5 5714)" fill="none" stroke="#fff" stroke-width="1"/>
          <path id="Trazado_2724-3" data-name="Trazado 2724" d="M0,0V26" transform="translate(1231.5 5714)" fill="none" stroke="#fff" stroke-width="1"/>
        </g>
      </g>
      <g transform="translate(-1160 -5713)">
        <g id="Rectángulo_851-4" data-name="Rectángulo 851" transform="translate(1217 5713)" fill="#d1d1d1" stroke="#fff" stroke-width="1">
          <rect width="20" height="28" rx="5" stroke="none"/>
          <rect x="0.5" y="0.5" width="19" height="27" rx="4.5" fill="none"/>
        </g>
        <g id="Grupo_1614-4" data-name="Grupo 1614" transform="translate(1.5)">
          <path id="Trazado_2721-4" data-name="Trazado 2721" d="M0,0V26" transform="translate(1219.5 5714)" fill="none" stroke="#fff" stroke-width="1"/>
          <path id="Trazado_2722-4" data-name="Trazado 2722" d="M0,0V26" transform="translate(1223.5 5714)" fill="none" stroke="#fff" stroke-width="1"/>
          <path id="Trazado_2723-4" data-name="Trazado 2723" d="M0,0V26" transform="translate(1227.5 5714)" fill="none" stroke="#fff" stroke-width="1"/>
          <path id="Trazado_2724-4" data-name="Trazado 2724" d="M0,0V26" transform="translate(1231.5 5714)" fill="none" stroke="#fff" stroke-width="1"/>
        </g>
      </g>
      <g transform="translate(-1141 -5713)">
        <g id="Rectángulo_851-5" data-name="Rectángulo 851" transform="translate(1217 5713)" fill="#d1d1d1" stroke="#fff" stroke-width="1">
          <rect width="20" height="28" rx="5" stroke="none"/>
          <rect x="0.5" y="0.5" width="19" height="27" rx="4.5" fill="none"/>
        </g>
        <g id="Grupo_1614-5" data-name="Grupo 1614" transform="translate(1.5)">
          <path id="Trazado_2721-5" data-name="Trazado 2721" d="M0,0V26" transform="translate(1219.5 5714)" fill="none" stroke="#fff" stroke-width="1"/>
          <path id="Trazado_2722-5" data-name="Trazado 2722" d="M0,0V26" transform="translate(1223.5 5714)" fill="none" stroke="#fff" stroke-width="1"/>
          <path id="Trazado_2723-5" data-name="Trazado 2723" d="M0,0V26" transform="translate(1227.5 5714)" fill="none" stroke="#fff" stroke-width="1"/>
          <path id="Trazado_2724-5" data-name="Trazado 2724" d="M0,0V26" transform="translate(1231.5 5714)" fill="none" stroke="#fff" stroke-width="1"/>
        </g>
      </g>
      <g transform="translate(-1122 -5713)">
        <g id="Rectángulo_851-6" data-name="Rectángulo 851" transform="translate(1217 5713)" fill="#d1d1d1" stroke="#fff" stroke-width="1">
          <rect width="20" height="28" rx="5" stroke="none"/>
          <rect x="0.5" y="0.5" width="19" height="27" rx="4.5" fill="none"/>
        </g>
        <g id="Grupo_1614-6" data-name="Grupo 1614" transform="translate(1.5)">
          <path id="Trazado_2721-6" data-name="Trazado 2721" d="M0,0V26" transform="translate(1219.5 5714)" fill="none" stroke="#fff" stroke-width="1"/>
          <path id="Trazado_2722-6" data-name="Trazado 2722" d="M0,0V26" transform="translate(1223.5 5714)" fill="none" stroke="#fff" stroke-width="1"/>
          <path id="Trazado_2723-6" data-name="Trazado 2723" d="M0,0V26" transform="translate(1227.5 5714)" fill="none" stroke="#fff" stroke-width="1"/>
          <path id="Trazado_2724-6" data-name="Trazado 2724" d="M0,0V26" transform="translate(1231.5 5714)" fill="none" stroke="#fff" stroke-width="1"/>
        </g>
      </g>
      <g transform="translate(-1217 -5686)">
        <g id="Rectángulo_851-7" data-name="Rectángulo 851" transform="translate(1217 5713)" fill="#d1d1d1" stroke="#fff" stroke-width="1">
          <rect width="20" height="28" rx="5" stroke="none"/>
          <rect x="0.5" y="0.5" width="19" height="27" rx="4.5" fill="none"/>
        </g>
        <g id="Grupo_1614-7" data-name="Grupo 1614" transform="translate(1.5)">
          <path id="Trazado_2721-7" data-name="Trazado 2721" d="M0,0V26" transform="translate(1219.5 5714)" fill="none" stroke="#fff" stroke-width="1"/>
          <path id="Trazado_2722-7" data-name="Trazado 2722" d="M0,0V26" transform="translate(1223.5 5714)" fill="none" stroke="#fff" stroke-width="1"/>
          <path id="Trazado_2723-7" data-name="Trazado 2723" d="M0,0V26" transform="translate(1227.5 5714)" fill="none" stroke="#fff" stroke-width="1"/>
          <path id="Trazado_2724-7" data-name="Trazado 2724" d="M0,0V26" transform="translate(1231.5 5714)" fill="none" stroke="#fff" stroke-width="1"/>
        </g>
      </g>
      <g transform="translate(-1198 -5686)">
        <g id="Rectángulo_851-8" data-name="Rectángulo 851" transform="translate(1217 5713)" fill="#d1d1d1" stroke="#fff" stroke-width="1">
          <rect width="20" height="28" rx="5" stroke="none"/>
          <rect x="0.5" y="0.5" width="19" height="27" rx="4.5" fill="none"/>
        </g>
        <g id="Grupo_1614-8" data-name="Grupo 1614" transform="translate(1.5)">
          <path id="Trazado_2721-8" data-name="Trazado 2721" d="M0,0V26" transform="translate(1219.5 5714)" fill="none" stroke="#fff" stroke-width="1"/>
          <path id="Trazado_2722-8" data-name="Trazado 2722" d="M0,0V26" transform="translate(1223.5 5714)" fill="none" stroke="#fff" stroke-width="1"/>
          <path id="Trazado_2723-8" data-name="Trazado 2723" d="M0,0V26" transform="translate(1227.5 5714)" fill="none" stroke="#fff" stroke-width="1"/>
          <path id="Trazado_2724-8" data-name="Trazado 2724" d="M0,0V26" transform="translate(1231.5 5714)" fill="none" stroke="#fff" stroke-width="1"/>
        </g>
      </g>
      <g transform="translate(-1179 -5686)">
        <g id="Rectángulo_851-9" data-name="Rectángulo 851" transform="translate(1217 5713)" fill="#d1d1d1" stroke="#fff" stroke-width="1">
          <rect width="20" height="28" rx="5" stroke="none"/>
          <rect x="0.5" y="0.5" width="19" height="27" rx="4.5" fill="none"/>
        </g>
        <g id="Grupo_1614-9" data-name="Grupo 1614" transform="translate(1.5)">
          <path id="Trazado_2721-9" data-name="Trazado 2721" d="M0,0V26" transform="translate(1219.5 5714)" fill="none" stroke="#fff" stroke-width="1"/>
          <path id="Trazado_2722-9" data-name="Trazado 2722" d="M0,0V26" transform="translate(1223.5 5714)" fill="none" stroke="#fff" stroke-width="1"/>
          <path id="Trazado_2723-9" data-name="Trazado 2723" d="M0,0V26" transform="translate(1227.5 5714)" fill="none" stroke="#fff" stroke-width="1"/>
          <path id="Trazado_2724-9" data-name="Trazado 2724" d="M0,0V26" transform="translate(1231.5 5714)" fill="none" stroke="#fff" stroke-width="1"/>
        </g>
      </g>
      <g transform="translate(-1160 -5686)">
        <g id="Rectángulo_851-10" data-name="Rectángulo 851" transform="translate(1217 5713)" fill="#d1d1d1" stroke="#fff" stroke-width="1">
          <rect width="20" height="28" rx="5" stroke="none"/>
          <rect x="0.5" y="0.5" width="19" height="27" rx="4.5" fill="none"/>
        </g>
        <g id="Grupo_1614-10" data-name="Grupo 1614" transform="translate(1.5)">
          <path id="Trazado_2721-10" data-name="Trazado 2721" d="M0,0V26" transform="translate(1219.5 5714)" fill="none" stroke="#fff" stroke-width="1"/>
          <path id="Trazado_2722-10" data-name="Trazado 2722" d="M0,0V26" transform="translate(1223.5 5714)" fill="none" stroke="#fff" stroke-width="1"/>
          <path id="Trazado_2723-10" data-name="Trazado 2723" d="M0,0V26" transform="translate(1227.5 5714)" fill="none" stroke="#fff" stroke-width="1"/>
          <path id="Trazado_2724-10" data-name="Trazado 2724" d="M0,0V26" transform="translate(1231.5 5714)" fill="none" stroke="#fff" stroke-width="1"/>
        </g>
      </g>
      <g transform="translate(-1141 -5686)">
        <g id="Rectángulo_851-11" data-name="Rectángulo 851" transform="translate(1217 5713)" fill="#d1d1d1" stroke="#fff" stroke-width="1">
          <rect width="20" height="28" rx="5" stroke="none"/>
          <rect x="0.5" y="0.5" width="19" height="27" rx="4.5" fill="none"/>
        </g>
        <g id="Grupo_1614-11" data-name="Grupo 1614" transform="translate(1.5)">
          <path id="Trazado_2721-11" data-name="Trazado 2721" d="M0,0V26" transform="translate(1219.5 5714)" fill="none" stroke="#fff" stroke-width="1"/>
          <path id="Trazado_2722-11" data-name="Trazado 2722" d="M0,0V26" transform="translate(1223.5 5714)" fill="none" stroke="#fff" stroke-width="1"/>
          <path id="Trazado_2723-11" data-name="Trazado 2723" d="M0,0V26" transform="translate(1227.5 5714)" fill="none" stroke="#fff" stroke-width="1"/>
          <path id="Trazado_2724-11" data-name="Trazado 2724" d="M0,0V26" transform="translate(1231.5 5714)" fill="none" stroke="#fff" stroke-width="1"/>
        </g>
      </g>
      <g transform="translate(-1122 -5686)">
        <g id="Rectángulo_851-12" data-name="Rectángulo 851" transform="translate(1217 5713)" fill="#d1d1d1" stroke="#fff" stroke-width="1">
          <rect width="20" height="28" rx="5" stroke="none"/>
          <rect x="0.5" y="0.5" width="19" height="27" rx="4.5" fill="none"/>
        </g>
        <g id="Grupo_1614-12" data-name="Grupo 1614" transform="translate(1.5)">
          <path id="Trazado_2721-12" data-name="Trazado 2721" d="M0,0V26" transform="translate(1219.5 5714)" fill="none" stroke="#fff" stroke-width="1"/>
          <path id="Trazado_2722-12" data-name="Trazado 2722" d="M0,0V26" transform="translate(1223.5 5714)" fill="none" stroke="#fff" stroke-width="1"/>
          <path id="Trazado_2723-12" data-name="Trazado 2723" d="M0,0V26" transform="translate(1227.5 5714)" fill="none" stroke="#fff" stroke-width="1"/>
          <path id="Trazado_2724-12" data-name="Trazado 2724" d="M0,0V26" transform="translate(1231.5 5714)" fill="none" stroke="#fff" stroke-width="1"/>
        </g>
      </g>
      <g transform="translate(-1217 -5659)">
        <g id="Rectángulo_851-13" data-name="Rectángulo 851" transform="translate(1217 5713)" fill="#d1d1d1" stroke="#fff" stroke-width="1">
          <rect width="20" height="28" rx="5" stroke="none"/>
          <rect x="0.5" y="0.5" width="19" height="27" rx="4.5" fill="none"/>
        </g>
        <g id="Grupo_1614-13" data-name="Grupo 1614" transform="translate(1.5)">
          <path id="Trazado_2721-13" data-name="Trazado 2721" d="M0,0V26" transform="translate(1219.5 5714)" fill="none" stroke="#fff" stroke-width="1"/>
          <path id="Trazado_2722-13" data-name="Trazado 2722" d="M0,0V26" transform="translate(1223.5 5714)" fill="none" stroke="#fff" stroke-width="1"/>
          <path id="Trazado_2723-13" data-name="Trazado 2723" d="M0,0V26" transform="translate(1227.5 5714)" fill="none" stroke="#fff" stroke-width="1"/>
          <path id="Trazado_2724-13" data-name="Trazado 2724" d="M0,0V26" transform="translate(1231.5 5714)" fill="none" stroke="#fff" stroke-width="1"/>
        </g>
      </g>
      <g transform="translate(-1198 -5659)">
        <g id="Rectángulo_851-14" data-name="Rectángulo 851" transform="translate(1217 5713)" fill="#d1d1d1" stroke="#fff" stroke-width="1">
          <rect width="20" height="28" rx="5" stroke="none"/>
          <rect x="0.5" y="0.5" width="19" height="27" rx="4.5" fill="none"/>
        </g>
        <g id="Grupo_1614-14" data-name="Grupo 1614" transform="translate(1.5)">
          <path id="Trazado_2721-14" data-name="Trazado 2721" d="M0,0V26" transform="translate(1219.5 5714)" fill="none" stroke="#fff" stroke-width="1"/>
          <path id="Trazado_2722-14" data-name="Trazado 2722" d="M0,0V26" transform="translate(1223.5 5714)" fill="none" stroke="#fff" stroke-width="1"/>
          <path id="Trazado_2723-14" data-name="Trazado 2723" d="M0,0V26" transform="translate(1227.5 5714)" fill="none" stroke="#fff" stroke-width="1"/>
          <path id="Trazado_2724-14" data-name="Trazado 2724" d="M0,0V26" transform="translate(1231.5 5714)" fill="none" stroke="#fff" stroke-width="1"/>
        </g>
      </g>
      <g transform="translate(-1179 -5659)">
        <g id="Rectángulo_851-15" data-name="Rectángulo 851" transform="translate(1217 5713)" fill="#d1d1d1" stroke="#fff" stroke-width="1">
          <rect width="20" height="28" rx="5" stroke="none"/>
          <rect x="0.5" y="0.5" width="19" height="27" rx="4.5" fill="none"/>
        </g>
        <g id="Grupo_1614-15" data-name="Grupo 1614" transform="translate(1.5)">
          <path id="Trazado_2721-15" data-name="Trazado 2721" d="M0,0V26" transform="translate(1219.5 5714)" fill="none" stroke="#fff" stroke-width="1"/>
          <path id="Trazado_2722-15" data-name="Trazado 2722" d="M0,0V26" transform="translate(1223.5 5714)" fill="none" stroke="#fff" stroke-width="1"/>
          <path id="Trazado_2723-15" data-name="Trazado 2723" d="M0,0V26" transform="translate(1227.5 5714)" fill="none" stroke="#fff" stroke-width="1"/>
          <path id="Trazado_2724-15" data-name="Trazado 2724" d="M0,0V26" transform="translate(1231.5 5714)" fill="none" stroke="#fff" stroke-width="1"/>
        </g>
      </g>
      <g transform="translate(-1160 -5659)">
        <g id="Rectángulo_851-16" data-name="Rectángulo 851" transform="translate(1217 5713)" fill="#d1d1d1" stroke="#fff" stroke-width="1">
          <rect width="20" height="28" rx="5" stroke="none"/>
          <rect x="0.5" y="0.5" width="19" height="27" rx="4.5" fill="none"/>
        </g>
        <g id="Grupo_1614-16" data-name="Grupo 1614" transform="translate(1.5)">
          <path id="Trazado_2721-16" data-name="Trazado 2721" d="M0,0V26" transform="translate(1219.5 5714)" fill="none" stroke="#fff" stroke-width="1"/>
          <path id="Trazado_2722-16" data-name="Trazado 2722" d="M0,0V26" transform="translate(1223.5 5714)" fill="none" stroke="#fff" stroke-width="1"/>
          <path id="Trazado_2723-16" data-name="Trazado 2723" d="M0,0V26" transform="translate(1227.5 5714)" fill="none" stroke="#fff" stroke-width="1"/>
          <path id="Trazado_2724-16" data-name="Trazado 2724" d="M0,0V26" transform="translate(1231.5 5714)" fill="none" stroke="#fff" stroke-width="1"/>
        </g>
      </g>
      <g transform="translate(-1141 -5659)">
        <g id="Rectángulo_851-17" data-name="Rectángulo 851" transform="translate(1217 5713)" fill="#d1d1d1" stroke="#fff" stroke-width="1">
          <rect width="20" height="28" rx="5" stroke="none"/>
          <rect x="0.5" y="0.5" width="19" height="27" rx="4.5" fill="none"/>
        </g>
        <g id="Grupo_1614-17" data-name="Grupo 1614" transform="translate(1.5)">
          <path id="Trazado_2721-17" data-name="Trazado 2721" d="M0,0V26" transform="translate(1219.5 5714)" fill="none" stroke="#fff" stroke-width="1"/>
          <path id="Trazado_2722-17" data-name="Trazado 2722" d="M0,0V26" transform="translate(1223.5 5714)" fill="none" stroke="#fff" stroke-width="1"/>
          <path id="Trazado_2723-17" data-name="Trazado 2723" d="M0,0V26" transform="translate(1227.5 5714)" fill="none" stroke="#fff" stroke-width="1"/>
          <path id="Trazado_2724-17" data-name="Trazado 2724" d="M0,0V26" transform="translate(1231.5 5714)" fill="none" stroke="#fff" stroke-width="1"/>
        </g>
      </g>
      <g transform="translate(-1122 -5659)">
        <g id="Rectángulo_851-18" data-name="Rectángulo 851" transform="translate(1217 5713)" fill="#d1d1d1" stroke="#fff" stroke-width="1">
          <rect width="20" height="28" rx="5" stroke="none"/>
          <rect x="0.5" y="0.5" width="19" height="27" rx="4.5" fill="none"/>
        </g>
        <g id="Grupo_1614-18" data-name="Grupo 1614" transform="translate(1.5)">
          <path id="Trazado_2721-18" data-name="Trazado 2721" d="M0,0V26" transform="translate(1219.5 5714)" fill="none" stroke="#fff" stroke-width="1"/>
          <path id="Trazado_2722-18" data-name="Trazado 2722" d="M0,0V26" transform="translate(1223.5 5714)" fill="none" stroke="#fff" stroke-width="1"/>
          <path id="Trazado_2723-18" data-name="Trazado 2723" d="M0,0V26" transform="translate(1227.5 5714)" fill="none" stroke="#fff" stroke-width="1"/>
          <path id="Trazado_2724-18" data-name="Trazado 2724" d="M0,0V26" transform="translate(1231.5 5714)" fill="none" stroke="#fff" stroke-width="1"/>
        </g>
      </g>
      <g transform="translate(-1217 -5632)">
        <g id="Rectángulo_851-19" data-name="Rectángulo 851" transform="translate(1217 5713)" fill="#d1d1d1" stroke="#fff" stroke-width="1">
          <rect width="20" height="28" rx="5" stroke="none"/>
          <rect x="0.5" y="0.5" width="19" height="27" rx="4.5" fill="none"/>
        </g>
        <g id="Grupo_1614-19" data-name="Grupo 1614" transform="translate(1.5)">
          <path id="Trazado_2721-19" data-name="Trazado 2721" d="M0,0V26" transform="translate(1219.5 5714)" fill="none" stroke="#fff" stroke-width="1"/>
          <path id="Trazado_2722-19" data-name="Trazado 2722" d="M0,0V26" transform="translate(1223.5 5714)" fill="none" stroke="#fff" stroke-width="1"/>
          <path id="Trazado_2723-19" data-name="Trazado 2723" d="M0,0V26" transform="translate(1227.5 5714)" fill="none" stroke="#fff" stroke-width="1"/>
          <path id="Trazado_2724-19" data-name="Trazado 2724" d="M0,0V26" transform="translate(1231.5 5714)" fill="none" stroke="#fff" stroke-width="1"/>
        </g>
      </g>
      <g transform="translate(-1198 -5632)">
        <g id="Rectángulo_851-20" data-name="Rectángulo 851" transform="translate(1217 5713)" fill="#d1d1d1" stroke="#fff" stroke-width="1">
          <rect width="20" height="28" rx="5" stroke="none"/>
          <rect x="0.5" y="0.5" width="19" height="27" rx="4.5" fill="none"/>
        </g>
        <g id="Grupo_1614-20" data-name="Grupo 1614" transform="translate(1.5)">
          <path id="Trazado_2721-20" data-name="Trazado 2721" d="M0,0V26" transform="translate(1219.5 5714)" fill="none" stroke="#fff" stroke-width="1"/>
          <path id="Trazado_2722-20" data-name="Trazado 2722" d="M0,0V26" transform="translate(1223.5 5714)" fill="none" stroke="#fff" stroke-width="1"/>
          <path id="Trazado_2723-20" data-name="Trazado 2723" d="M0,0V26" transform="translate(1227.5 5714)" fill="none" stroke="#fff" stroke-width="1"/>
          <path id="Trazado_2724-20" data-name="Trazado 2724" d="M0,0V26" transform="translate(1231.5 5714)" fill="none" stroke="#fff" stroke-width="1"/>
        </g>
      </g>
      <g transform="translate(-1179 -5632)">
        <g id="Rectángulo_851-21" data-name="Rectángulo 851" transform="translate(1217 5713)" fill="#d1d1d1" stroke="#fff" stroke-width="1">
          <rect width="20" height="28" rx="5" stroke="none"/>
          <rect x="0.5" y="0.5" width="19" height="27" rx="4.5" fill="none"/>
        </g>
        <g id="Grupo_1614-21" data-name="Grupo 1614" transform="translate(1.5)">
          <path id="Trazado_2721-21" data-name="Trazado 2721" d="M0,0V26" transform="translate(1219.5 5714)" fill="none" stroke="#fff" stroke-width="1"/>
          <path id="Trazado_2722-21" data-name="Trazado 2722" d="M0,0V26" transform="translate(1223.5 5714)" fill="none" stroke="#fff" stroke-width="1"/>
          <path id="Trazado_2723-21" data-name="Trazado 2723" d="M0,0V26" transform="translate(1227.5 5714)" fill="none" stroke="#fff" stroke-width="1"/>
          <path id="Trazado_2724-21" data-name="Trazado 2724" d="M0,0V26" transform="translate(1231.5 5714)" fill="none" stroke="#fff" stroke-width="1"/>
        </g>
      </g>
      <g transform="translate(-1160 -5632)">
        <g id="Rectángulo_851-22" data-name="Rectángulo 851" transform="translate(1217 5713)" fill="#d1d1d1" stroke="#fff" stroke-width="1">
          <rect width="20" height="28" rx="5" stroke="none"/>
          <rect x="0.5" y="0.5" width="19" height="27" rx="4.5" fill="none"/>
        </g>
        <g id="Grupo_1614-22" data-name="Grupo 1614" transform="translate(1.5)">
          <path id="Trazado_2721-22" data-name="Trazado 2721" d="M0,0V26" transform="translate(1219.5 5714)" fill="none" stroke="#fff" stroke-width="1"/>
          <path id="Trazado_2722-22" data-name="Trazado 2722" d="M0,0V26" transform="translate(1223.5 5714)" fill="none" stroke="#fff" stroke-width="1"/>
          <path id="Trazado_2723-22" data-name="Trazado 2723" d="M0,0V26" transform="translate(1227.5 5714)" fill="none" stroke="#fff" stroke-width="1"/>
          <path id="Trazado_2724-22" data-name="Trazado 2724" d="M0,0V26" transform="translate(1231.5 5714)" fill="none" stroke="#fff" stroke-width="1"/>
        </g>
      </g>
      <g transform="translate(-1141 -5632)">
        <g id="Rectángulo_851-23" data-name="Rectángulo 851" transform="translate(1217 5713)" fill="#d1d1d1" stroke="#fff" stroke-width="1">
          <rect width="20" height="28" rx="5" stroke="none"/>
          <rect x="0.5" y="0.5" width="19" height="27" rx="4.5" fill="none"/>
        </g>
        <g id="Grupo_1614-23" data-name="Grupo 1614" transform="translate(1.5)">
          <path id="Trazado_2721-23" data-name="Trazado 2721" d="M0,0V26" transform="translate(1219.5 5714)" fill="none" stroke="#fff" stroke-width="1"/>
          <path id="Trazado_2722-23" data-name="Trazado 2722" d="M0,0V26" transform="translate(1223.5 5714)" fill="none" stroke="#fff" stroke-width="1"/>
          <path id="Trazado_2723-23" data-name="Trazado 2723" d="M0,0V26" transform="translate(1227.5 5714)" fill="none" stroke="#fff" stroke-width="1"/>
          <path id="Trazado_2724-23" data-name="Trazado 2724" d="M0,0V26" transform="translate(1231.5 5714)" fill="none" stroke="#fff" stroke-width="1"/>
        </g>
      </g>
      <g transform="translate(-1122 -5632)">
        <g id="Rectángulo_851-24" data-name="Rectángulo 851" transform="translate(1217 5713)" fill="#d1d1d1" stroke="#fff" stroke-width="1">
          <rect width="20" height="28" rx="5" stroke="none"/>
          <rect x="0.5" y="0.5" width="19" height="27" rx="4.5" fill="none"/>
        </g>
        <g id="Grupo_1614-24" data-name="Grupo 1614" transform="translate(1.5)">
          <path id="Trazado_2721-24" data-name="Trazado 2721" d="M0,0V26" transform="translate(1219.5 5714)" fill="none" stroke="#fff" stroke-width="1"/>
          <path id="Trazado_2722-24" data-name="Trazado 2722" d="M0,0V26" transform="translate(1223.5 5714)" fill="none" stroke="#fff" stroke-width="1"/>
          <path id="Trazado_2723-24" data-name="Trazado 2723" d="M0,0V26" transform="translate(1227.5 5714)" fill="none" stroke="#fff" stroke-width="1"/>
          <path id="Trazado_2724-24" data-name="Trazado 2724" d="M0,0V26" transform="translate(1231.5 5714)" fill="none" stroke="#fff" stroke-width="1"/>
        </g>
      </g>
      <g transform="translate(-1217 -5605)">
        <g id="Rectángulo_851-25" data-name="Rectángulo 851" transform="translate(1217 5713)" fill="#d1d1d1" stroke="#fff" stroke-width="1">
          <rect width="20" height="28" rx="5" stroke="none"/>
          <rect x="0.5" y="0.5" width="19" height="27" rx="4.5" fill="none"/>
        </g>
        <g id="Grupo_1614-25" data-name="Grupo 1614" transform="translate(1.5)">
          <path id="Trazado_2721-25" data-name="Trazado 2721" d="M0,0V26" transform="translate(1219.5 5714)" fill="none" stroke="#fff" stroke-width="1"/>
          <path id="Trazado_2722-25" data-name="Trazado 2722" d="M0,0V26" transform="translate(1223.5 5714)" fill="none" stroke="#fff" stroke-width="1"/>
          <path id="Trazado_2723-25" data-name="Trazado 2723" d="M0,0V26" transform="translate(1227.5 5714)" fill="none" stroke="#fff" stroke-width="1"/>
          <path id="Trazado_2724-25" data-name="Trazado 2724" d="M0,0V26" transform="translate(1231.5 5714)" fill="none" stroke="#fff" stroke-width="1"/>
        </g>
      </g>
      <g transform="translate(-1198 -5605)">
        <g id="Rectángulo_851-26" data-name="Rectángulo 851" transform="translate(1217 5713)" fill="#d1d1d1" stroke="#fff" stroke-width="1">
          <rect width="20" height="28" rx="5" stroke="none"/>
          <rect x="0.5" y="0.5" width="19" height="27" rx="4.5" fill="none"/>
        </g>
        <g id="Grupo_1614-26" data-name="Grupo 1614" transform="translate(1.5)">
          <path id="Trazado_2721-26" data-name="Trazado 2721" d="M0,0V26" transform="translate(1219.5 5714)" fill="none" stroke="#fff" stroke-width="1"/>
          <path id="Trazado_2722-26" data-name="Trazado 2722" d="M0,0V26" transform="translate(1223.5 5714)" fill="none" stroke="#fff" stroke-width="1"/>
          <path id="Trazado_2723-26" data-name="Trazado 2723" d="M0,0V26" transform="translate(1227.5 5714)" fill="none" stroke="#fff" stroke-width="1"/>
          <path id="Trazado_2724-26" data-name="Trazado 2724" d="M0,0V26" transform="translate(1231.5 5714)" fill="none" stroke="#fff" stroke-width="1"/>
        </g>
      </g>
      <g transform="translate(-1179 -5605)">
        <g id="Rectángulo_851-27" data-name="Rectángulo 851" transform="translate(1217 5713)" fill="#d1d1d1" stroke="#fff" stroke-width="1">
          <rect width="20" height="28" rx="5" stroke="none"/>
          <rect x="0.5" y="0.5" width="19" height="27" rx="4.5" fill="none"/>
        </g>
        <g id="Grupo_1614-27" data-name="Grupo 1614" transform="translate(1.5)">
          <path id="Trazado_2721-27" data-name="Trazado 2721" d="M0,0V26" transform="translate(1219.5 5714)" fill="none" stroke="#fff" stroke-width="1"/>
          <path id="Trazado_2722-27" data-name="Trazado 2722" d="M0,0V26" transform="translate(1223.5 5714)" fill="none" stroke="#fff" stroke-width="1"/>
          <path id="Trazado_2723-27" data-name="Trazado 2723" d="M0,0V26" transform="translate(1227.5 5714)" fill="none" stroke="#fff" stroke-width="1"/>
          <path id="Trazado_2724-27" data-name="Trazado 2724" d="M0,0V26" transform="translate(1231.5 5714)" fill="none" stroke="#fff" stroke-width="1"/>
        </g>
      </g>
      <g transform="translate(-1160 -5605)">
        <g id="Rectángulo_851-28" data-name="Rectángulo 851" transform="translate(1217 5713)" fill="#d1d1d1" stroke="#fff" stroke-width="1">
          <rect width="20" height="28" rx="5" stroke="none"/>
          <rect x="0.5" y="0.5" width="19" height="27" rx="4.5" fill="none"/>
        </g>
        <g id="Grupo_1614-28" data-name="Grupo 1614" transform="translate(1.5)">
          <path id="Trazado_2721-28" data-name="Trazado 2721" d="M0,0V26" transform="translate(1219.5 5714)" fill="none" stroke="#fff" stroke-width="1"/>
          <path id="Trazado_2722-28" data-name="Trazado 2722" d="M0,0V26" transform="translate(1223.5 5714)" fill="none" stroke="#fff" stroke-width="1"/>
          <path id="Trazado_2723-28" data-name="Trazado 2723" d="M0,0V26" transform="translate(1227.5 5714)" fill="none" stroke="#fff" stroke-width="1"/>
          <path id="Trazado_2724-28" data-name="Trazado 2724" d="M0,0V26" transform="translate(1231.5 5714)" fill="none" stroke="#fff" stroke-width="1"/>
        </g>
      </g>
      <g transform="translate(-1141 -5605)">
        <g id="Rectángulo_851-29" data-name="Rectángulo 851" transform="translate(1217 5713)" fill="#d1d1d1" stroke="#fff" stroke-width="1">
          <rect width="20" height="28" rx="5" stroke="none"/>
          <rect x="0.5" y="0.5" width="19" height="27" rx="4.5" fill="none"/>
        </g>
        <g id="Grupo_1614-29" data-name="Grupo 1614" transform="translate(1.5)">
          <path id="Trazado_2721-29" data-name="Trazado 2721" d="M0,0V26" transform="translate(1219.5 5714)" fill="none" stroke="#fff" stroke-width="1"/>
          <path id="Trazado_2722-29" data-name="Trazado 2722" d="M0,0V26" transform="translate(1223.5 5714)" fill="none" stroke="#fff" stroke-width="1"/>
          <path id="Trazado_2723-29" data-name="Trazado 2723" d="M0,0V26" transform="translate(1227.5 5714)" fill="none" stroke="#fff" stroke-width="1"/>
          <path id="Trazado_2724-29" data-name="Trazado 2724" d="M0,0V26" transform="translate(1231.5 5714)" fill="none" stroke="#fff" stroke-width="1"/>
        </g>
      </g>
      <g transform="translate(-1122 -5605)">
        <g id="Rectángulo_851-30" data-name="Rectángulo 851" transform="translate(1217 5713)" fill="#d1d1d1" stroke="#fff" stroke-width="1">
          <rect width="20" height="28" rx="5" stroke="none"/>
          <rect x="0.5" y="0.5" width="19" height="27" rx="4.5" fill="none"/>
        </g>
        <g id="Grupo_1614-30" data-name="Grupo 1614" transform="translate(1.5)">
          <path id="Trazado_2721-30" data-name="Trazado 2721" d="M0,0V26" transform="translate(1219.5 5714)" fill="none" stroke="#fff" stroke-width="1"/>
          <path id="Trazado_2722-30" data-name="Trazado 2722" d="M0,0V26" transform="translate(1223.5 5714)" fill="none" stroke="#fff" stroke-width="1"/>
          <path id="Trazado_2723-30" data-name="Trazado 2723" d="M0,0V26" transform="translate(1227.5 5714)" fill="none" stroke="#fff" stroke-width="1"/>
          <path id="Trazado_2724-30" data-name="Trazado 2724" d="M0,0V26" transform="translate(1231.5 5714)" fill="none" stroke="#fff" stroke-width="1"/>
        </g>
      </g>
      <g transform="translate(-1217 -5578)">
        <g id="Rectángulo_851-31" data-name="Rectángulo 851" transform="translate(1217 5713)" fill="#d1d1d1" stroke="#fff" stroke-width="1">
          <rect width="20" height="28" rx="5" stroke="none"/>
          <rect x="0.5" y="0.5" width="19" height="27" rx="4.5" fill="none"/>
        </g>
        <g id="Grupo_1614-31" data-name="Grupo 1614" transform="translate(1.5)">
          <path id="Trazado_2721-31" data-name="Trazado 2721" d="M0,0V26" transform="translate(1219.5 5714)" fill="none" stroke="#fff" stroke-width="1"/>
          <path id="Trazado_2722-31" data-name="Trazado 2722" d="M0,0V26" transform="translate(1223.5 5714)" fill="none" stroke="#fff" stroke-width="1"/>
          <path id="Trazado_2723-31" data-name="Trazado 2723" d="M0,0V26" transform="translate(1227.5 5714)" fill="none" stroke="#fff" stroke-width="1"/>
          <path id="Trazado_2724-31" data-name="Trazado 2724" d="M0,0V26" transform="translate(1231.5 5714)" fill="none" stroke="#fff" stroke-width="1"/>
        </g>
      </g>
      <g transform="translate(-1198 -5578)">
        <g id="Rectángulo_851-32" data-name="Rectángulo 851" transform="translate(1217 5713)" fill="#d1d1d1" stroke="#fff" stroke-width="1">
          <rect width="20" height="28" rx="5" stroke="none"/>
          <rect x="0.5" y="0.5" width="19" height="27" rx="4.5" fill="none"/>
        </g>
        <g id="Grupo_1614-32" data-name="Grupo 1614" transform="translate(1.5)">
          <path id="Trazado_2721-32" data-name="Trazado 2721" d="M0,0V26" transform="translate(1219.5 5714)" fill="none" stroke="#fff" stroke-width="1"/>
          <path id="Trazado_2722-32" data-name="Trazado 2722" d="M0,0V26" transform="translate(1223.5 5714)" fill="none" stroke="#fff" stroke-width="1"/>
          <path id="Trazado_2723-32" data-name="Trazado 2723" d="M0,0V26" transform="translate(1227.5 5714)" fill="none" stroke="#fff" stroke-width="1"/>
          <path id="Trazado_2724-32" data-name="Trazado 2724" d="M0,0V26" transform="translate(1231.5 5714)" fill="none" stroke="#fff" stroke-width="1"/>
        </g>
      </g>
      <g transform="translate(-1179 -5578)">
        <g id="Rectángulo_851-33" data-name="Rectángulo 851" transform="translate(1217 5713)" fill="#d1d1d1" stroke="#fff" stroke-width="1">
          <rect width="20" height="28" rx="5" stroke="none"/>
          <rect x="0.5" y="0.5" width="19" height="27" rx="4.5" fill="none"/>
        </g>
        <g id="Grupo_1614-33" data-name="Grupo 1614" transform="translate(1.5)">
          <path id="Trazado_2721-33" data-name="Trazado 2721" d="M0,0V26" transform="translate(1219.5 5714)" fill="none" stroke="#fff" stroke-width="1"/>
          <path id="Trazado_2722-33" data-name="Trazado 2722" d="M0,0V26" transform="translate(1223.5 5714)" fill="none" stroke="#fff" stroke-width="1"/>
          <path id="Trazado_2723-33" data-name="Trazado 2723" d="M0,0V26" transform="translate(1227.5 5714)" fill="none" stroke="#fff" stroke-width="1"/>
          <path id="Trazado_2724-33" data-name="Trazado 2724" d="M0,0V26" transform="translate(1231.5 5714)" fill="none" stroke="#fff" stroke-width="1"/>
        </g>
      </g>
      <g transform="translate(-1160 -5578)">
        <g id="Rectángulo_851-34" data-name="Rectángulo 851" transform="translate(1217 5713)" fill="#d1d1d1" stroke="#fff" stroke-width="1">
          <rect width="20" height="28" rx="5" stroke="none"/>
          <rect x="0.5" y="0.5" width="19" height="27" rx="4.5" fill="none"/>
        </g>
        <g id="Grupo_1614-34" data-name="Grupo 1614" transform="translate(1.5)">
          <path id="Trazado_2721-34" data-name="Trazado 2721" d="M0,0V26" transform="translate(1219.5 5714)" fill="none" stroke="#fff" stroke-width="1"/>
          <path id="Trazado_2722-34" data-name="Trazado 2722" d="M0,0V26" transform="translate(1223.5 5714)" fill="none" stroke="#fff" stroke-width="1"/>
          <path id="Trazado_2723-34" data-name="Trazado 2723" d="M0,0V26" transform="translate(1227.5 5714)" fill="none" stroke="#fff" stroke-width="1"/>
          <path id="Trazado_2724-34" data-name="Trazado 2724" d="M0,0V26" transform="translate(1231.5 5714)" fill="none" stroke="#fff" stroke-width="1"/>
        </g>
      </g>
      <g transform="translate(-1141 -5578)">
        <g id="Rectángulo_851-35" data-name="Rectángulo 851" transform="translate(1217 5713)" fill="#d1d1d1" stroke="#fff" stroke-width="1">
          <rect width="20" height="28" rx="5" stroke="none"/>
          <rect x="0.5" y="0.5" width="19" height="27" rx="4.5" fill="none"/>
        </g>
        <g id="Grupo_1614-35" data-name="Grupo 1614" transform="translate(1.5)">
          <path id="Trazado_2721-35" data-name="Trazado 2721" d="M0,0V26" transform="translate(1219.5 5714)" fill="none" stroke="#fff" stroke-width="1"/>
          <path id="Trazado_2722-35" data-name="Trazado 2722" d="M0,0V26" transform="translate(1223.5 5714)" fill="none" stroke="#fff" stroke-width="1"/>
          <path id="Trazado_2723-35" data-name="Trazado 2723" d="M0,0V26" transform="translate(1227.5 5714)" fill="none" stroke="#fff" stroke-width="1"/>
          <path id="Trazado_2724-35" data-name="Trazado 2724" d="M0,0V26" transform="translate(1231.5 5714)" fill="none" stroke="#fff" stroke-width="1"/>
        </g>
      </g>
      <g transform="translate(-1122 -5578)">
        <g id="Rectángulo_851-36" data-name="Rectángulo 851" transform="translate(1217 5713)" fill="#d1d1d1" stroke="#fff" stroke-width="1">
          <rect width="20" height="28" rx="5" stroke="none"/>
          <rect x="0.5" y="0.5" width="19" height="27" rx="4.5" fill="none"/>
        </g>
        <g id="Grupo_1614-36" data-name="Grupo 1614" transform="translate(1.5)">
          <path id="Trazado_2721-36" data-name="Trazado 2721" d="M0,0V26" transform="translate(1219.5 5714)" fill="none" stroke="#fff" stroke-width="1"/>
          <path id="Trazado_2722-36" data-name="Trazado 2722" d="M0,0V26" transform="translate(1223.5 5714)" fill="none" stroke="#fff" stroke-width="1"/>
          <path id="Trazado_2723-36" data-name="Trazado 2723" d="M0,0V26" transform="translate(1227.5 5714)" fill="none" stroke="#fff" stroke-width="1"/>
          <path id="Trazado_2724-36" data-name="Trazado 2724" d="M0,0V26" transform="translate(1231.5 5714)" fill="none" stroke="#fff" stroke-width="1"/>
        </g>
      </g>
      <g transform="translate(-1217 -5551)">
        <g id="Rectángulo_851-37" data-name="Rectángulo 851" transform="translate(1217 5713)" fill="#d1d1d1" stroke="#fff" stroke-width="1">
          <rect width="20" height="28" rx="5" stroke="none"/>
          <rect x="0.5" y="0.5" width="19" height="27" rx="4.5" fill="none"/>
        </g>
        <g id="Grupo_1614-37" data-name="Grupo 1614" transform="translate(1.5)">
          <path id="Trazado_2721-37" data-name="Trazado 2721" d="M0,0V26" transform="translate(1219.5 5714)" fill="none" stroke="#fff" stroke-width="1"/>
          <path id="Trazado_2722-37" data-name="Trazado 2722" d="M0,0V26" transform="translate(1223.5 5714)" fill="none" stroke="#fff" stroke-width="1"/>
          <path id="Trazado_2723-37" data-name="Trazado 2723" d="M0,0V26" transform="translate(1227.5 5714)" fill="none" stroke="#fff" stroke-width="1"/>
          <path id="Trazado_2724-37" data-name="Trazado 2724" d="M0,0V26" transform="translate(1231.5 5714)" fill="none" stroke="#fff" stroke-width="1"/>
        </g>
      </g>
      <g transform="translate(-1198 -5551)">
        <g id="Rectángulo_851-38" data-name="Rectángulo 851" transform="translate(1217 5713)" fill="#d1d1d1" stroke="#fff" stroke-width="1">
          <rect width="20" height="28" rx="5" stroke="none"/>
          <rect x="0.5" y="0.5" width="19" height="27" rx="4.5" fill="none"/>
        </g>
        <g id="Grupo_1614-38" data-name="Grupo 1614" transform="translate(1.5)">
          <path id="Trazado_2721-38" data-name="Trazado 2721" d="M0,0V26" transform="translate(1219.5 5714)" fill="none" stroke="#fff" stroke-width="1"/>
          <path id="Trazado_2722-38" data-name="Trazado 2722" d="M0,0V26" transform="translate(1223.5 5714)" fill="none" stroke="#fff" stroke-width="1"/>
          <path id="Trazado_2723-38" data-name="Trazado 2723" d="M0,0V26" transform="translate(1227.5 5714)" fill="none" stroke="#fff" stroke-width="1"/>
          <path id="Trazado_2724-38" data-name="Trazado 2724" d="M0,0V26" transform="translate(1231.5 5714)" fill="none" stroke="#fff" stroke-width="1"/>
        </g>
      </g>
      <g transform="translate(-1179 -5551)">
        <g id="Rectángulo_851-39" data-name="Rectángulo 851" transform="translate(1217 5713)" fill="#d1d1d1" stroke="#fff" stroke-width="1">
          <rect width="20" height="28" rx="5" stroke="none"/>
          <rect x="0.5" y="0.5" width="19" height="27" rx="4.5" fill="none"/>
        </g>
        <g id="Grupo_1614-39" data-name="Grupo 1614" transform="translate(1.5)">
          <path id="Trazado_2721-39" data-name="Trazado 2721" d="M0,0V26" transform="translate(1219.5 5714)" fill="none" stroke="#fff" stroke-width="1"/>
          <path id="Trazado_2722-39" data-name="Trazado 2722" d="M0,0V26" transform="translate(1223.5 5714)" fill="none" stroke="#fff" stroke-width="1"/>
          <path id="Trazado_2723-39" data-name="Trazado 2723" d="M0,0V26" transform="translate(1227.5 5714)" fill="none" stroke="#fff" stroke-width="1"/>
          <path id="Trazado_2724-39" data-name="Trazado 2724" d="M0,0V26" transform="translate(1231.5 5714)" fill="none" stroke="#fff" stroke-width="1"/>
        </g>
      </g>
      <g transform="translate(-1160 -5551)">
        <g id="Rectángulo_851-40" data-name="Rectángulo 851" transform="translate(1217 5713)" fill="#d1d1d1" stroke="#fff" stroke-width="1">
          <rect width="20" height="28" rx="5" stroke="none"/>
          <rect x="0.5" y="0.5" width="19" height="27" rx="4.5" fill="none"/>
        </g>
        <g id="Grupo_1614-40" data-name="Grupo 1614" transform="translate(1.5)">
          <path id="Trazado_2721-40" data-name="Trazado 2721" d="M0,0V26" transform="translate(1219.5 5714)" fill="none" stroke="#fff" stroke-width="1"/>
          <path id="Trazado_2722-40" data-name="Trazado 2722" d="M0,0V26" transform="translate(1223.5 5714)" fill="none" stroke="#fff" stroke-width="1"/>
          <path id="Trazado_2723-40" data-name="Trazado 2723" d="M0,0V26" transform="translate(1227.5 5714)" fill="none" stroke="#fff" stroke-width="1"/>
          <path id="Trazado_2724-40" data-name="Trazado 2724" d="M0,0V26" transform="translate(1231.5 5714)" fill="none" stroke="#fff" stroke-width="1"/>
        </g>
      </g>
      <g transform="translate(-1141 -5551)">
        <g id="Rectángulo_851-41" data-name="Rectángulo 851" transform="translate(1217 5713)" fill="#d1d1d1" stroke="#fff" stroke-width="1">
          <rect width="20" height="28" rx="5" stroke="none"/>
          <rect x="0.5" y="0.5" width="19" height="27" rx="4.5" fill="none"/>
        </g>
        <g id="Grupo_1614-41" data-name="Grupo 1614" transform="translate(1.5)">
          <path id="Trazado_2721-41" data-name="Trazado 2721" d="M0,0V26" transform="translate(1219.5 5714)" fill="none" stroke="#fff" stroke-width="1"/>
          <path id="Trazado_2722-41" data-name="Trazado 2722" d="M0,0V26" transform="translate(1223.5 5714)" fill="none" stroke="#fff" stroke-width="1"/>
          <path id="Trazado_2723-41" data-name="Trazado 2723" d="M0,0V26" transform="translate(1227.5 5714)" fill="none" stroke="#fff" stroke-width="1"/>
          <path id="Trazado_2724-41" data-name="Trazado 2724" d="M0,0V26" transform="translate(1231.5 5714)" fill="none" stroke="#fff" stroke-width="1"/>
        </g>
      </g>
      <g transform="translate(-1122 -5551)">
        <g id="Rectángulo_851-42" data-name="Rectángulo 851" transform="translate(1217 5713)" fill="#d1d1d1" stroke="#fff" stroke-width="1">
          <rect width="20" height="28" rx="5" stroke="none"/>
          <rect x="0.5" y="0.5" width="19" height="27" rx="4.5" fill="none"/>
        </g>
        <g id="Grupo_1614-42" data-name="Grupo 1614" transform="translate(1.5)">
          <path id="Trazado_2721-42" data-name="Trazado 2721" d="M0,0V26" transform="translate(1219.5 5714)" fill="none" stroke="#fff" stroke-width="1"/>
          <path id="Trazado_2722-42" data-name="Trazado 2722" d="M0,0V26" transform="translate(1223.5 5714)" fill="none" stroke="#fff" stroke-width="1"/>
          <path id="Trazado_2723-42" data-name="Trazado 2723" d="M0,0V26" transform="translate(1227.5 5714)" fill="none" stroke="#fff" stroke-width="1"/>
          <path id="Trazado_2724-42" data-name="Trazado 2724" d="M0,0V26" transform="translate(1231.5 5714)" fill="none" stroke="#fff" stroke-width="1"/>
        </g>
      </g>
    </g>
  </g>
</svg>
